<?xml version="1.0" encoding="UTF-8"?>
<svg width="700pt" height="700pt" version="1.1" viewBox="0 0 700 700" xmlns="http://www.w3.org/2000/svg" xmlns:xlink="http://www.w3.org/1999/xlink">
 <defs>
  <symbol id="v" overflow="visible">
   <path d="m23.078-1.375c-1.1992 0.61719-2.4453 1.0781-3.7344 1.3906-1.2812 0.3125-2.625 0.46875-4.0312 0.46875-4.1797 0-7.4922-1.1641-9.9375-3.5-2.4375-2.3438-3.6562-5.5156-3.6562-9.5156 0-4.0078 1.2188-7.1797 3.6562-9.5156 2.4453-2.3438 5.7578-3.5156 9.9375-3.5156 1.4062 0 2.75 0.15625 4.0312 0.46875 1.2891 0.3125 2.5352 0.78125 3.7344 1.4062v5.1875c-1.2109-0.8125-2.3984-1.4102-3.5625-1.7969-1.1562-0.38281-2.3828-0.57812-3.6719-0.57812-2.3125 0-4.1328 0.74609-5.4531 2.2344-1.3242 1.4805-1.9844 3.5156-1.9844 6.1094s0.66016 4.6328 1.9844 6.1094c1.3203 1.4805 3.1406 2.2188 5.4531 2.2188 1.2891 0 2.5156-0.1875 3.6719-0.5625 1.1641-0.38281 2.3516-0.98828 3.5625-1.8125z"/>
  </symbol>
  <symbol id="b" overflow="visible">
   <path d="m16.875-13.703c-0.52344-0.25-1.043-0.42969-1.5625-0.54688-0.52344-0.11328-1.0469-0.17188-1.5781-0.17188-1.543 0-2.7344 0.49609-3.5781 1.4844-0.83594 0.99219-1.25 2.4141-1.25 4.2656v8.6719h-6.0156v-18.828h6.0156v3.0938c0.78125-1.2383 1.6719-2.1406 2.6719-2.7031s2.2031-0.84375 3.6094-0.84375c0.19531 0 0.41016 0.011719 0.64062 0.03125 0.23828 0.011719 0.58203 0.042969 1.0312 0.09375z"/>
  </symbol>
  <symbol id="a" overflow="visible">
   <path d="m21.688-9.4688v1.7188h-14.062c0.13281 1.4062 0.64062 2.4648 1.5156 3.1719 0.875 0.71094 2.0977 1.0625 3.6719 1.0625 1.2695 0 2.5664-0.1875 3.8906-0.5625 1.332-0.375 2.6953-0.94141 4.0938-1.7031v4.6406c-1.418 0.53125-2.8398 0.93359-4.2656 1.2031-1.4297 0.28125-2.8516 0.42188-4.2656 0.42188-3.418 0-6.0703-0.86328-7.9531-2.5938-1.8867-1.7266-2.8281-4.1602-2.8281-7.2969 0-3.0625 0.92578-5.4727 2.7812-7.2344 1.8516-1.7578 4.4062-2.6406 7.6562-2.6406 2.957 0 5.3203 0.89062 7.0938 2.6719 1.7812 1.7812 2.6719 4.1641 2.6719 7.1406zm-6.1875-2c0-1.1445-0.33594-2.0664-1-2.7656-0.66797-0.69531-1.5391-1.0469-2.6094-1.0469-1.168 0-2.1172 0.32812-2.8438 0.98438-0.73047 0.65625-1.1836 1.6016-1.3594 2.8281z"/>
  </symbol>
  <symbol id="e" overflow="visible">
   <path d="m11.328-8.4688c-1.25 0-2.1953 0.21484-2.8281 0.64062-0.63672 0.41797-0.95312 1.043-0.95312 1.875 0 0.76172 0.25391 1.3594 0.76562 1.7969 0.50781 0.42969 1.2188 0.64062 2.125 0.64062 1.1328 0 2.0859-0.40625 2.8594-1.2188 0.78125-0.8125 1.1719-1.8281 1.1719-3.0469v-0.6875zm9.2031-2.2812v10.75h-6.0625v-2.7969c-0.8125 1.1484-1.7266 1.9805-2.7344 2.5-1.0117 0.51953-2.2422 0.78125-3.6875 0.78125-1.9492 0-3.5312-0.56641-4.75-1.7031-1.2109-1.1328-1.8125-2.6133-1.8125-4.4375 0-2.207 0.75391-3.8281 2.2656-4.8594 1.5195-1.0312 3.9062-1.5469 7.1562-1.5469h3.5625v-0.46875c0-0.94531-0.38281-1.6406-1.1406-2.0781-0.75-0.44531-1.9219-0.67188-3.5156-0.67188-1.2812 0-2.4805 0.13281-3.5938 0.39062-1.1055 0.25-2.1367 0.63672-3.0938 1.1562v-4.5938c1.2891-0.3125 2.5859-0.54688 3.8906-0.70312 1.3008-0.16406 2.5977-0.25 3.8906-0.25 3.4062 0 5.8594 0.67188 7.3594 2.0156 1.5078 1.3359 2.2656 3.5078 2.2656 6.5156z"/>
  </symbol>
  <symbol id="c" overflow="visible">
   <path d="m9.4688-24.188v5.3594h6.2031v4.2969h-6.2031v7.9844c0 0.875 0.17188 1.4688 0.51562 1.7812 0.35156 0.30469 1.0469 0.45312 2.0781 0.45312h3.0938v4.3125h-5.1719c-2.375 0-4.0586-0.49219-5.0469-1.4844-0.99219-0.98828-1.4844-2.6758-1.4844-5.0625v-7.9844h-3v-4.2969h3v-5.3594z"/>
  </symbol>
  <symbol id="l" overflow="visible">
   <path d="m15.703-16.078v-10.094h6.0625v26.172h-6.0625v-2.7188c-0.82422 1.1055-1.7344 1.918-2.7344 2.4375-1 0.50781-2.1562 0.76562-3.4688 0.76562-2.3242 0-4.2305-0.92188-5.7188-2.7656-1.4922-1.8438-2.2344-4.2188-2.2344-7.125 0-2.8945 0.74219-5.2656 2.2344-7.1094 1.4883-1.8438 3.3945-2.7656 5.7188-2.7656 1.3008 0 2.4531 0.26172 3.4531 0.78125 1.0078 0.52344 1.9258 1.3281 2.75 2.4219zm-3.9688 12.188c1.2891 0 2.2734-0.46875 2.9531-1.4062 0.67578-0.9375 1.0156-2.3047 1.0156-4.1094 0-1.7891-0.33984-3.1562-1.0156-4.0938-0.67969-0.94531-1.6641-1.4219-2.9531-1.4219-1.2812 0-2.2617 0.47656-2.9375 1.4219-0.67969 0.9375-1.0156 2.3047-1.0156 4.0938 0 1.8047 0.33594 3.1719 1.0156 4.1094 0.67578 0.9375 1.6562 1.4062 2.9375 1.4062z"/>
  </symbol>
  <symbol id="k" overflow="visible">
   <path d="m12.922-3.8906c1.2812 0 2.2578-0.46875 2.9375-1.4062 0.67578-0.9375 1.0156-2.3047 1.0156-4.1094 0-1.7891-0.33984-3.1562-1.0156-4.0938-0.67969-0.94531-1.6562-1.4219-2.9375-1.4219-1.293 0-2.2891 0.47656-2.9844 1.4219-0.6875 0.94922-1.0312 2.3125-1.0312 4.0938 0 1.793 0.34375 3.1641 1.0312 4.1094 0.69531 0.9375 1.6914 1.4062 2.9844 1.4062zm-4.0156-12.188c0.83203-1.0938 1.7539-1.8984 2.7656-2.4219 1.0078-0.51953 2.1719-0.78125 3.4844-0.78125 2.3125 0 4.2109 0.92188 5.7031 2.7656 1.5 1.8438 2.25 4.2148 2.25 7.1094 0 2.9062-0.75 5.2812-2.25 7.125-1.4922 1.8438-3.3906 2.7656-5.7031 2.7656-1.3125 0-2.4766-0.26172-3.4844-0.78125-1.0117-0.51953-1.9336-1.3281-2.7656-2.4219v2.7188h-6.0156v-26.172h6.0156z"/>
  </symbol>
  <symbol id="j" overflow="visible">
   <path d="m0.42188-18.828h6.0156l5.0625 12.781 4.3125-12.781h6.0156l-7.9219 20.609c-0.79297 2.0938-1.7188 3.5547-2.7812 4.3906-1.0625 0.84375-2.4648 1.2656-4.2031 1.2656h-3.4688v-3.9531h1.875c1.0195 0 1.7578-0.16797 2.2188-0.5 0.46875-0.32422 0.83203-0.90234 1.0938-1.7344l0.17188-0.53125z"/>
  </symbol>
  <symbol id="i" overflow="visible">
   <path d="m3.1562-25.109h17.469v4.8906h-10.984v4.6875h10.328v4.8906h-10.328v5.75h11.359v4.8906h-17.844z"/>
  </symbol>
  <symbol id="h" overflow="visible">
   <path d="m2.8906-26.172h6.0156v26.172h-6.0156z"/>
  </symbol>
  <symbol id="u" overflow="visible">
   <path d="m2.8906-18.828h6.0156v18.828h-6.0156zm0-7.3438h6.0156v4.9219h-6.0156z"/>
  </symbol>
  <symbol id="d" overflow="visible">
   <path d="m11.859-14.984c-1.3359 0-2.3555 0.48047-3.0625 1.4375-0.69922 0.96094-1.0469 2.3398-1.0469 4.1406 0 1.8125 0.34766 3.1992 1.0469 4.1562 0.70703 0.96094 1.7266 1.4375 3.0625 1.4375 1.3125 0 2.3125-0.47656 3-1.4375 0.69531-0.95703 1.0469-2.3438 1.0469-4.1562 0-1.8008-0.35156-3.1797-1.0469-4.1406-0.6875-0.95703-1.6875-1.4375-3-1.4375zm0-4.2969c3.2383 0 5.7656 0.875 7.5781 2.625 1.8203 1.7422 2.7344 4.1562 2.7344 7.25s-0.91406 5.5156-2.7344 7.2656c-1.8125 1.75-4.3398 2.625-7.5781 2.625-3.25 0-5.793-0.875-7.625-2.625-1.8359-1.75-2.75-4.1719-2.75-7.2656s0.91406-5.5078 2.75-7.25c1.832-1.75 4.375-2.625 7.625-2.625z"/>
  </symbol>
  <symbol id="t" overflow="visible">
   <path d="m0.17188-25.109h6.5l6.6562 18.531 6.6406-18.531h6.5156l-9.2969 25.109h-7.7188z"/>
  </symbol>
  <symbol id="g" overflow="visible">
   <path d="m21.828-11.469v11.469h-6.0625v-8.75c0-1.6445-0.039063-2.7734-0.10938-3.3906-0.074219-0.61328-0.19922-1.0664-0.375-1.3594-0.23047-0.39453-0.54688-0.70312-0.95312-0.92188s-0.86719-0.32812-1.375-0.32812c-1.2617 0-2.25 0.48438-2.9688 1.4531s-1.0781 2.3125-1.0781 4.0312v9.2656h-6.0156v-26.172h6.0156v10.094c0.91406-1.0938 1.8789-1.8984 2.8906-2.4219 1.0195-0.51953 2.1484-0.78125 3.3906-0.78125 2.1758 0 3.8281 0.66797 4.9531 2 1.125 1.3359 1.6875 3.2734 1.6875 5.8125z"/>
  </symbol>
  <symbol id="f" overflow="visible">
   <path d="m21.828-11.469v11.469h-6.0625v-8.7812c0-1.625-0.039063-2.7422-0.10938-3.3594-0.074219-0.61328-0.19922-1.0664-0.375-1.3594-0.23047-0.39453-0.54688-0.70312-0.95312-0.92188s-0.86719-0.32812-1.375-0.32812c-1.2617 0-2.25 0.48438-2.9688 1.4531s-1.0781 2.3125-1.0781 4.0312v9.2656h-6.0156v-18.828h6.0156v2.75c0.91406-1.0938 1.8789-1.8984 2.8906-2.4219 1.0195-0.51953 2.1484-0.78125 3.3906-0.78125 2.1758 0 3.8281 0.66797 4.9531 2 1.125 1.3359 1.6875 3.2734 1.6875 5.8125z"/>
  </symbol>
  <symbol id="s" overflow="visible">
   <path d="m15.281-26.172v3.9531h-3.3281c-0.85547 0-1.4492 0.15625-1.7812 0.46875-0.33594 0.3125-0.5 0.85156-0.5 1.6094v1.3125h5.1406v4.2969h-5.1406v14.531h-6.0156v-14.531h-3v-4.2969h3v-1.3125c0-2.0508 0.56641-3.5664 1.7031-4.5469 1.1445-0.98828 2.9141-1.4844 5.3125-1.4844z"/>
  </symbol>
  <symbol id="r" overflow="visible">
   <path d="m20.344-15.703c0.75781-1.1641 1.6641-2.0508 2.7188-2.6562 1.0508-0.61328 2.2031-0.92188 3.4531-0.92188 2.1641 0 3.8125 0.66797 4.9375 2 1.1328 1.3359 1.7031 3.2734 1.7031 5.8125v11.469h-6.0469v-9.8125c0.007813-0.14453 0.015625-0.29688 0.015625-0.45312 0.007812-0.16406 0.015625-0.39453 0.015625-0.6875 0-1.332-0.19922-2.2969-0.59375-2.8906-0.38672-0.60156-1.0156-0.90625-1.8906-0.90625-1.1484 0-2.0312 0.47656-2.6562 1.4219-0.625 0.9375-0.94922 2.2969-0.96875 4.0781v9.25h-6.0469v-9.8125c0-2.0938-0.18359-3.4375-0.54688-4.0312-0.35547-0.60156-0.99219-0.90625-1.9062-0.90625-1.1562 0-2.0547 0.47656-2.6875 1.4219-0.625 0.94922-0.9375 2.3047-0.9375 4.0625v9.2656h-6.0469v-18.828h6.0469v2.75c0.73828-1.0625 1.5859-1.8594 2.5469-2.3906 0.95703-0.53906 2.0156-0.8125 3.1719-0.8125 1.3008 0 2.4531 0.3125 3.4531 0.9375s1.7539 1.5078 2.2656 2.6406z"/>
  </symbol>
  <symbol id="q" overflow="visible">
   <path d="m3.1562-25.109h7.2344l9.125 17.219v-17.219h6.1406v25.109h-7.2344l-9.125-17.219v17.219h-6.1406z"/>
  </symbol>
  <symbol id="p" overflow="visible">
   <path d="m2.6875-7.3281v-11.5h6.0625v1.875c0 1.0234-0.011719 2.3047-0.03125 3.8438-0.011719 1.543-0.015625 2.5742-0.015625 3.0938 0 1.5117 0.039063 2.6016 0.125 3.2656 0.082031 0.66797 0.21875 1.1523 0.40625 1.4531 0.23828 0.39844 0.55469 0.70312 0.95312 0.92188 0.40625 0.21094 0.86328 0.3125 1.375 0.3125 1.2578 0 2.25-0.48438 2.9688-1.4531s1.0781-2.3047 1.0781-4.0156v-9.2969h6.0156v18.828h-6.0156v-2.7188c-0.90625 1.0938-1.8711 1.9023-2.8906 2.4219-1.0117 0.51953-2.1328 0.78125-3.3594 0.78125-2.168 0-3.8242-0.66406-4.9688-2-1.1367-1.332-1.7031-3.2695-1.7031-5.8125z"/>
  </symbol>
  <symbol id="o" overflow="visible">
   <path d="m3.1562-25.109h10.75c3.1953 0 5.6484 0.71484 7.3594 2.1406 1.707 1.418 2.5625 3.4336 2.5625 6.0469 0 2.6367-0.85547 4.668-2.5625 6.0938-1.7109 1.418-4.1641 2.125-7.3594 2.125h-4.2656v8.7031h-6.4844zm6.4844 4.7031v7h3.5781c1.25 0 2.2188-0.30078 2.9062-0.90625 0.6875-0.61328 1.0312-1.4844 1.0312-2.6094 0-1.1133-0.34375-1.9727-1.0312-2.5781-0.6875-0.60156-1.6562-0.90625-2.9062-0.90625z"/>
  </symbol>
  <symbol id="n" overflow="visible">
   <path d="m2.8906-18.828h6.0156v18.484c0 2.5312-0.60547 4.457-1.8125 5.7812-1.2109 1.332-2.9648 2-5.2656 2h-2.9688v-3.9531h1.0469c1.1328 0 1.9141-0.26172 2.3438-0.78125 0.42578-0.51172 0.64062-1.5273 0.64062-3.0469zm0-7.3438h6.0156v4.9219h-6.0156z"/>
  </symbol>
  <symbol id="m" overflow="visible">
   <path d="m18.109-18.25v4.9219c-0.82422-0.5625-1.6484-0.97656-2.4688-1.25-0.82422-0.26953-1.6797-0.40625-2.5625-0.40625-1.6797 0-2.9844 0.49219-3.9219 1.4688-0.9375 0.98047-1.4062 2.3516-1.4062 4.1094 0 1.7617 0.46875 3.1367 1.4062 4.125 0.9375 0.98047 2.2422 1.4688 3.9219 1.4688 0.94531 0 1.8438-0.14062 2.6875-0.42188s1.625-0.69531 2.3438-1.25v4.9219c-0.9375 0.35547-1.8984 0.61328-2.875 0.78125-0.96875 0.17578-1.9375 0.26562-2.9062 0.26562-3.3984 0-6.0547-0.86719-7.9688-2.6094-1.918-1.7383-2.875-4.1641-2.875-7.2812 0-3.1016 0.95703-5.5234 2.875-7.2656 1.9141-1.7383 4.5703-2.6094 7.9688-2.6094 0.98828 0 1.9609 0.089844 2.9219 0.26562 0.95703 0.16797 1.9102 0.42188 2.8594 0.76562z"/>
  </symbol>
 </defs>
 <g>
  <path d="m279.34 16.523-1.7578-7.5742c10.188-2.3672 20.586-4.2617 30.922-5.7148l1.0898 7.7188c-10.117 1.3945-20.301 3.2891-30.254 5.5703z" fill="#010101"/>
  <path d="m432.07 16.066c-9.9297-2.2578-20.102-4.043-30.324-5.3516l1.0312-7.7266c10.434 1.3438 20.848 3.1953 30.969 5.4766z" fill="#010101"/>
  <path d="m340.28 8.1523-0.36328-7.7734c10.496-0.48828 21.148-0.48828 31.488-0.074218l-0.28906 7.7969c-10.277-0.42969-20.602-0.42969-30.836 0.050782z" fill="#010101"/>
  <path d="m55.598 531.7c5.3984 8.9961 11.246 17.809 17.391 26.23l6.293-4.6055c-6.0039-8.2109-11.734-16.812-17.031-25.633z" fill="#010101"/>
  <path d="m28.156 475.08c3.7188 9.8555 7.8906 19.594 12.438 28.918l6.9883-3.3945c-4.4219-9.1172-8.5117-18.645-12.164-28.25z" fill="#010101"/>
  <path d="m11.344 414.45c1.8945 10.316 4.25 20.652 7.0391 30.68l7.5078-2.0742c-2.7266-9.8281-5.0352-19.922-6.8867-30.012z" fill="#010101"/>
  <path d="m13.438 351.8h-7.7812c0.015625 10.453 0.50391 21.031 1.4453 31.465l7.7461-0.70312c-0.92578-10.219-1.4023-20.555-1.4102-30.762z" fill="#010101"/>
  <path d="m18.781 290.51-7.6641-1.3789c-1.8164 10.281-3.2148 20.766-4.1328 31.23l7.7461 0.66016c0.90625-10.223 2.2539-20.496 4.0508-30.512z" fill="#010101"/>
  <path d="m34.961 231.14-7.293-2.707c-3.6719 9.8828-6.9219 19.945-9.6562 29.949l7.5117 2.0586c2.6797-9.7695 5.8633-19.625 9.4375-29.301z" fill="#010101"/>
  <path d="m61.559 175.68-6.6953-3.9727c-5.3438 8.9648-10.344 18.305-14.875 27.762l7.0195 3.3398c4.4258-9.207 9.3203-18.367 14.551-27.129z" fill="#010101"/>
  <path d="m72.191 145.41 6.3008 4.5586c6-8.2773 12.445-16.383 19.16-24.105l-5.875-5.1172c-6.8828 7.8789-13.465 16.199-19.586 24.664z" fill="#010101"/>
  <path d="m137.11 77.18c-8.1211 6.4961-16.086 13.492-23.645 20.73l5.3867 5.6523c7.4023-7.1211 15.199-13.988 23.121-20.309z" fill="#010101"/>
  <path d="m598.44 96.457c-7.543-7.1758-15.535-14.105-23.738-20.648l-4.8672 6.1172c8.0703 6.3789 15.875 13.16 23.27 20.18z" fill="#010101"/>
  <path d="m193.21 49.152-3.7188-6.8125c-9.1172 4.9258-18.188 10.391-26.969 16.23l4.3242 6.4453c8.5742-5.6914 17.441-11.008 26.363-15.863z" fill="#010101"/>
  <path d="m549.15 57.359c-8.7188-5.7227-17.801-11.129-27.102-16.086l-3.6367 6.8672c9.0234 4.8203 17.941 10.121 26.488 15.715z" fill="#010101"/>
  <path d="m249.69 24.785-2.4375-7.3828c-10.02 3.2852-19.93 7.0508-29.422 11.164l3.0703 7.1484c9.2969-4.0273 19-7.6797 28.789-10.93z" fill="#010101"/>
  <path d="m493.68 27.707c-9.5859-4.0352-19.516-7.7461-29.531-10.973l-2.375 7.418c9.8008 3.1328 19.496 6.7578 28.863 10.738z" fill="#010101"/>
  <path d="m688.34 184.39-18.703-18.672 7.6914-63.613-8.5469-8.4727-22.016 49.164-12.742-12.715c-1.1094-1.1211-2.6094-1.9766-4.1953-2.4844l4.2969-21.23-6.832-6.8398-10.164 23.809-23.793 10.152 6.8125 6.8438 21.262-4.2969c0.51563 1.5781 1.3711 3.0703 2.4922 4.1992l12.742 12.742-49.199 22.043 8.4492 8.5117 63.668-7.6602 18.645 18.672c3.4453 3.4922 8.0039 5.6211 12.898 5.9727 0.85547 0 1.6992-0.24609 2.3359-0.85547 0.57813-0.61328 0.94922-1.4531 0.88672-2.3086-0.35938-4.9336-2.4961-9.4922-5.9883-12.961z" fill="#010101"/>
  <path d="m357.51 104.07c-125.71 0-227.96 102.26-227.96 227.96 0 125.69 102.26 227.96 227.96 227.96 125.69 0 227.96-102.27 227.96-227.96 0-125.7-102.27-227.96-227.96-227.96zm185.83 265.12c4.1406 4.1797 5.9922 8.0352 6.8242 12.219-22.016 85.844-100.05 149.48-192.65 149.48-34.289 0-66.57-8.7266-94.758-24.062 0.28125-1.2344 0.55859-2.4844 0.83203-3.8203 1.6797-8.1055 14.207-11.996 19.586-17.363 5.2422-5.2461 15.668-8.4219 18.906-15.281 2.1211-4.4961-0.88281-10.262 0.92188-14.457 1.3711-3.1523 6.5977-6.5898 9.0508-9.0508 6.1562-6.1562 10.77-22.176 10.77-30.59h-27.629c-8.7266 0-7.0312-10.316-7.0664-16.727-0.007813-3.4453 0.21484-7.6523-1.4609-10.797-1.9062-3.582-8.0859-2.5352-11.398-4.2148-5.7656-2.9258-10.543-8.6562-11.672-15.098-0.74219-4.2227-0.59375-7.3125-5.9023-7.1055-5.2188 0.21875-10.07 4.4023-14.926 4.4023h-18.285-40.418c0 2.1836-1.2383 9.2891 0.75 10.289 4.9805 2.4805 9.9531 4.9727 14.926 7.457 7.4258 3.7188 9.6016 13.008 13.23 20.254 3.5664 7.1367 7.6094 14.145 10.738 21.461 3.8711 9.0508 6.6797 19.125 13.727 26.398 2.9688 3.0664 8.7266 2.4375 9.9844 6.6602 1.5977 5.3047-0.046874 11.777-1.2656 16.996-1.3516 5.7773-3.043 11.488-4.5391 17.23-41.086-29.586-70.445-74.426-79.758-126.16 2.7695-0.21484 5.543-0.58594 7.1562-0.58594 5.3711 0 5.5352-0.39844 9.4297-4.2773 3.4102-3.4102 5.625-4.4219 5.625-9.1172v-16.336c6.6133 3.2969 13.211 6.6133 19.82 9.9023 0.28906-8.0078 6.0117-9.0352 12.609-10.145 7.8359-1.293 12.996-9.6758 20.254-9.6758 5.9844 0 8.4727 1.1445 14.09 2.9609 2.9492 0.97266 6.6445 2.0938 9.7227 1.1367 4.1406-1.293 3.1602-8.6836 4.5938-12.004 2.0586-4.8008 5.1914-11.59 10.742-12.051 6.0312-0.48047 13.855-3.2031 7.2734-9.7734-7.2227-7.2227-12.625-16.438-17.508-25.344-2.0859-3.8203-2.6094-9.8477-6.1289-12.484-7.6875-5.7695-19.227 2.0508-25 7.2305-3.2422 2.9258 1.8438 9.6562-2.6094 11.535-7.2461 3.0703-16.699 5.5352-24.18 1.9609-4.0781-1.9492-6.5977-6.7266-11.227-7.582-3.1953-0.57812-2.5469-1.4727-2.5469-5.0547v-18.121c0-2.5078 0.69531-1.5234 2.9766-2.1758 8.9727-2.5742 3.6758-14.254 12.57-14.402 10.309-0.17188 0.12891-17.742-2.6602-21.32-1.5625-2.0117-3.1211-2.9141-4.8203-3.3203 36.465-45.715 92.586-75.086 155.48-75.086 57.238 0 108.88 24.34 145.19 63.172-10.688 11.609-22.176 24.828-29.984 30.688-5.3594 4.0156-12.301 6.4531-18.285 9.4414-5.9727 2.9961-14.07 1.3906-20.613 1.3906-1.6992 0-21.797-0.27734-21.797 0.24609 0 5.957 2.9805 18.078-2.7695 20.965-6.8672 3.4297-14.574 6.0469-20.035 11.496-1.5508 1.5508-7.8906 5.9727-6.0664 7.8047 0.007812 0.007812 0.015624 0.015624 0.027343 0.019531-1-0.53906-2.0234-0.88281-3.0938-0.84766-7.7734 0.26172-17.422 0.59375-24.199 4.875-4.2969 2.7148-3.1328 6.8164-3.707 11.328-0.64844 5.0703-2.2383 10.434-5.8828 14.188-4.3516 4.4922-3.6562 5.2266-3.6562 12.512 7.707-0.85547 15.426-1.7148 23.152-2.5625 0.91016-0.125 6.5781-0.15234 6.5781-1.1641 0-1.9141-1.082-8.4023 0.23437-9.7188 2.9219-2.9219 5.875-5.875 8.8164-8.8164 1.7852-1.7852 5.0273 3.3047 6.4883 4.7734 2.6875 2.6797 5.3086 3.25 2.457 6.0742-2.6914 2.7148-5.3984 5.4219-8.0938 8.1133 1.1992 0 9.8945 0.32422 9.918-0.22656 0.35156-7.3984 4.8281-14.516 9.9023-19.594 5.4805-5.4805 12.996-5.543 18.906-0.80469 2.3906 1.9297 0.92188 8.1211 0.92188 10.715 0 1.7422-0.48047 19.82 0.42578 19.82 4.3594 0 8.1602 1.0039 11.5-1.8242 11.48-9.6641 26.5-7.3477 37.629-17.996 3.2969 6.6055 6.6133 13.211 9.9102 19.82-7.8711 2.6289-15.75 5.2461-23.621 7.8711-0.62109 0.19922-5.9375 2.3828-6.2109 1.8516-1.7969-3.5312-3.7109-7.1562-6.1562-10.297-3.25-4.1797-4.0625-0.55078-3.4219 3.293 1.0391 6.3516 5.0703 12.293 9.4414 16.879 4.5859 4.8086 7.1562 14.07 10.145 20.055-0.62109-12.184 17.113 7.1953 19.828 9.9023 4.1875-4.1875 8.4023-8.4023 12.582-12.574l6.2344-6.2344c1.6797-1.6875-0.19141-2.168-1.4883-3.9883-6.9961-9.7812 10.973-6.9336 16.434-6.9336 10.316 0 18.16 2.6914 25.703 9.9102-9.5742-0.48828 0.28125 10.164 2.4844 12.383z" fill="#010101"/>
  <path d="m365.77 257.7c-2.1914 2.2031-4.4062 4.4023-6.5977 6.6133-2.2578 0.82812-5.9922 0.98438-6.1289 3.5898-0.16406 3.2148-0.30859 6.4102-0.48047 9.6289 4.3164-2.1562 8.6367-4.3164 12.949-6.4648 1.3711-0.69922 0.25781-11.453 0.25781-13.367z" fill="#010101"/>
  <path d="m385.42 247.79c2.457 0 6.7773 1.3789 6.7773-1.5508v-0.1875c0.47656 0.94531 1.3281 1.5352 2.6602 1.6602-0.79297 3.332-1.6602 6.668-2.6602 9.9922 3.0156-3.0156 6.0195-6.0273 9.043-9.0508 2.0234-2.0234 0.85938-7.0938 0.85938-9.7812v-1.418-19.398c-0.1875 0.37891-0.51562 0.99219-0.91016 1.707-0.125-1.3984-0.1875-2.7695-0.33203-4.1797-0.38672 2.3203-0.76562 4.6211-1.1484 6.9297-2.5352 4.7383-6.1758 11.934-7.5195 17.453v-2.5-19.398c-1.9961 3.9961-17.312 29.723-6.7695 29.723z" fill="#010101"/>
  <path d="m474.2 406.14c6.4727-1.082 12.43-5.207 17.113-9.6758-7.3477-2.4453-14.676-4.8984-22.031-7.3398-8.2227-2.7422-8.2422-3.6289-12.223-11.609-3.1211-6.2617-5.2734-10.668-10.129-15.523-3.5469-3.5469-15.082-11.434-15.082-16.633 0-7.9141 1.5352-8.3594-5.875-8.3594h-27.852-45.562c-5.9922 6.0742-11.805 12.68-16.203 20.012-7.832 13.051 1.9609 19.574 10.535 28.961 9.1719 10.035 5.6211 27.074 22.781 30.082 6.1211 1.0625 13.043 0.22656 19.242 0.22656 0.73828 0 14.324-1.9141 13.016-4.2969 1.4375 2.582 0.64844 9.7578 1.1562 12.891 1.1641 7.0312 2.6875 14.016 4.2422 20.965 1.8398 8.2852 4.7031 16.461 4.7031 24.957 0 8.7383 9.0977 14.051 15.074 20.035 2.2734 2.2734 3.5742 4.7383 6.8047 4.7383h16.789c2.7812 0-2.4102-34.379 6.3984-38.727 2.5156-1.2383 7.4844 0.14453 8.9727-2.7266 1.0273-1.9492-0.097656-4.3438 0.92969-6.2891 2.4648-4.75 8.2852-0.10938 8.8516-7.9336 0.44141-6.3516-0.68359-19.457-5.1602-24.484-5.4453-6.1172-3.7539-8.0508 3.5078-9.2695z" fill="#010101"/>
  <path d="m322.7 198.11c-5.043-4.9805-10.477-9.6953-16.301-13.746-7.8711-5.4688-13.801-5.957-23.223-5.957-4.5039 0-9.0977-0.30859-13.586 0.054688-1.9336 0.16016-1.1836 2.3203-1.7422 3.7539-3.3828 8.6484-17.438 19.043-24.316 25.922 9.5195 0 14.828 19.746 18.438 26.961 2.168 4.332 1.3906 8.8359 1.3906 13.676 0 7.0859-0.61328 8.3125 4.2852 13.211 4.8633 4.8633 4.4492 6.8125 9.25 2.0117 4.8281-4.8281 9.6484-9.6484 14.469-14.469 3.168-3.1836 1.7305-8.332 1.7305-12.645 0-6.3633-2.2578-8.918 4.1797-8.918 4.9453 0 9.5859 0.44141 13.566-2.9766 3.0156-2.6016 5.3633-5.8828 9.5117-6.6992 4.6016-0.91016 14.324-2.5547 12.383-10.152-0.79297-3.0781-7.6836-7.6992-10.035-10.027z" fill="#010101"/>
  <g>
   <use x="5.65625" y="663.304688" xlink:href="#v"/>
   <use x="30.925781" y="663.304688" xlink:href="#b"/>
   <use x="47.910156" y="663.304688" xlink:href="#a"/>
   <use x="71.261719" y="663.304688" xlink:href="#e"/>
   <use x="94.5" y="663.304688" xlink:href="#c"/>
   <use x="110.960938" y="663.304688" xlink:href="#a"/>
   <use x="134.3125" y="663.304688" xlink:href="#l"/>
   <use x="170.949219" y="663.304688" xlink:href="#k"/>
   <use x="195.601563" y="663.304688" xlink:href="#j"/>
   <use x="230.035156" y="663.304688" xlink:href="#i"/>
   <use x="253.558594" y="663.304688" xlink:href="#h"/>
   <use x="265.359375" y="663.304688" xlink:href="#h"/>
   <use x="277.164062" y="663.304688" xlink:href="#u"/>
   <use x="288.964844" y="663.304688" xlink:href="#d"/>
   <use x="312.625" y="663.304688" xlink:href="#c"/>
   <use x="341.070312" y="663.304688" xlink:href="#t"/>
   <use x="367.722656" y="663.304688" xlink:href="#a"/>
   <use x="391.074219" y="663.304688" xlink:href="#b"/>
   <use x="408.058594" y="663.304688" xlink:href="#g"/>
   <use x="432.570313" y="663.304688" xlink:href="#e"/>
   <use x="455.808594" y="663.304688" xlink:href="#a"/>
   <use x="479.164062" y="663.304688" xlink:href="#b"/>
   <use x="496.144531" y="663.304688" xlink:href="#a"/>
   <use x="519.5" y="663.304688" xlink:href="#f"/>
   <use x="5.65625" y="697.738281" xlink:href="#s"/>
   <use x="20.636719" y="697.738281" xlink:href="#b"/>
   <use x="37.617188" y="697.738281" xlink:href="#d"/>
   <use x="61.277344" y="697.738281" xlink:href="#r"/>
   <use x="109.144531" y="697.738281" xlink:href="#c"/>
   <use x="125.605469" y="697.738281" xlink:href="#g"/>
   <use x="150.117188" y="697.738281" xlink:href="#a"/>
   <use x="185.460938" y="697.738281" xlink:href="#q"/>
   <use x="214.28125" y="697.738281" xlink:href="#d"/>
   <use x="237.9375" y="697.738281" xlink:href="#p"/>
   <use x="262.453125" y="697.738281" xlink:href="#f"/>
   <use x="298.953125" y="697.738281" xlink:href="#o"/>
   <use x="324.191406" y="697.738281" xlink:href="#b"/>
   <use x="341.171875" y="697.738281" xlink:href="#d"/>
   <use x="364.828125" y="697.738281" xlink:href="#n"/>
   <use x="376.632812" y="697.738281" xlink:href="#a"/>
   <use x="399.988281" y="697.738281" xlink:href="#m"/>
   <use x="420.398438" y="697.738281" xlink:href="#c"/>
  </g>
 </g>
</svg>
